<svg width="100" height="40" viewBox="0 0 100 40" fill="none" xmlns="http://www.w3.org/2000/svg">
<path d="M55.9311 5.95105L51.1252 34.5944H47.7893L52.5952 5.95105H55.9311Z" fill="#259688"/>
<path d="M53.2546 34.5944L56.8732 13.1119H60.2091L56.5905 34.5944H53.2546ZM59.5589 9.47552C58.9087 9.47552 58.348 9.25641 57.8768 8.81818C57.4151 8.37995 57.1842 7.85315 57.1842 7.23776C57.1842 6.62238 57.4151 6.09557 57.8768 5.65734C58.348 5.21911 58.9087 5 59.5589 5C60.2091 5 60.7651 5.21911 61.2268 5.65734C61.698 6.09557 61.9336 6.62238 61.9336 7.23776C61.9336 7.85315 61.698 8.37995 61.2268 8.81818C60.7651 9.25641 60.2091 9.47552 59.5589 9.47552Z" fill="#259688"/>
<path d="M64.2044 21.6713L62.0559 34.5944H58.72L62.3386 13.1119H65.5613L64.9959 16.4685H65.2786C65.9571 15.3776 66.8759 14.5012 68.035 13.8392C69.1941 13.1678 70.5934 12.8322 72.2331 12.8322C73.6843 12.8322 74.9094 13.1305 75.9082 13.7273C76.9165 14.3147 77.628 15.2098 78.0426 16.4126C78.4667 17.6061 78.5279 19.1166 78.2264 20.9441L75.9082 34.5944H72.5723L74.834 21.1678C75.1167 19.4895 74.8952 18.1748 74.1696 17.2238C73.4534 16.2727 72.3179 15.7972 70.7631 15.7972C69.6888 15.7972 68.6946 16.0256 67.7806 16.4825C66.8759 16.9394 66.1079 17.6061 65.4765 18.4825C64.8546 19.359 64.4305 20.4219 64.2044 21.6713Z" fill="#259688"/>
<path d="M82.4337 26.7622L83.0556 22.6783H83.7341L94.8726 13.1119H99L87.1831 23.2378H86.9004L82.4337 26.7622ZM78.0235 34.5944L82.8295 5.95105H86.1654L81.3594 34.5944H78.0235ZM91.8194 34.5944L85.1476 23.965L87.8616 21.6713L96.0599 34.5944H91.8194Z" fill="#259688"/>
<path d="M7.02154 5.95105V34.5944H1V5.95105H7.02154Z" fill="#259688"/>
<path d="M16.0461 35C14.6608 35 13.4264 34.7622 12.3427 34.2867C11.259 33.8019 10.4015 33.0886 9.77011 32.1469C9.14817 31.1958 8.83719 30.0117 8.83719 28.5944C8.83719 27.4009 9.05864 26.3986 9.50154 25.5874C9.94444 24.7762 10.5475 24.1235 11.3108 23.6294C12.0741 23.1352 12.9411 22.7622 13.9117 22.5105C14.8917 22.2587 15.9189 22.0816 16.9931 21.979C18.2559 21.8485 19.2736 21.7273 20.0463 21.6154C20.819 21.4942 21.3797 21.317 21.7284 21.0839C22.0771 20.8508 22.2514 20.5058 22.2514 20.049V19.965C22.2514 19.0793 21.9687 18.3939 21.4033 17.9091C20.8473 17.4242 20.0557 17.1818 19.0286 17.1818C17.9449 17.1818 17.0827 17.4196 16.4419 17.8951C15.8011 18.3613 15.377 18.9487 15.1697 19.6573L9.60049 19.2098C9.88319 17.9044 10.4392 16.7762 11.2684 15.8252C12.0977 14.8648 13.1672 14.1282 14.4771 13.6154C15.7964 13.0932 17.323 12.8322 19.0569 12.8322C20.2631 12.8322 21.4174 12.972 22.52 13.2517C23.6319 13.5315 24.6167 13.965 25.4742 14.5524C26.3411 15.1399 27.0243 15.8951 27.5238 16.8182C28.0232 17.7319 28.2729 18.8275 28.2729 20.1049V34.5944H22.5624V31.6154H22.3927C22.0441 32.2867 21.5776 32.8788 20.9934 33.3916C20.4091 33.8951 19.7071 34.2914 18.8872 34.5804C18.0674 34.8601 17.1204 35 16.0461 35ZM17.7706 30.8881C18.6564 30.8881 19.4385 30.7156 20.117 30.3706C20.7955 30.0163 21.3279 29.5408 21.7143 28.9441C22.1006 28.3473 22.2938 27.6713 22.2938 26.9161V24.6364C22.1053 24.7576 21.8462 24.8695 21.5164 24.972C21.196 25.0653 20.8332 25.1538 20.428 25.2378C20.0228 25.3124 19.6175 25.3823 19.2123 25.4476C18.8071 25.5035 18.4396 25.5548 18.1098 25.6014C17.4031 25.704 16.7858 25.8671 16.2581 26.0909C15.7304 26.3147 15.3205 26.6177 15.0284 27C14.7362 27.373 14.5902 27.8392 14.5902 28.3986C14.5902 29.2098 14.887 29.8298 15.4807 30.2587C16.0838 30.6783 16.8471 30.8881 17.7706 30.8881Z" fill="#259688"/>
<path d="M30.8413 34.5944V31.042L41.4709 18.021V17.8671H31.2088V13.1119H48.7222V16.986L38.7428 29.6853V29.8392H49.0897V34.5944H30.8413Z" fill="#259688"/>
</svg>
